# This file uses centimeters as units for non-parametric coordinates.

mtllib Unit_3_Challenge_Table.mtl
g default
v -4.308852 -0.148990 2.268060
v -3.970502 -0.148990 2.268060
v -4.308852 3.783899 2.268060
v -3.970502 3.783899 2.268060
v -4.308852 3.783899 1.926188
v -3.970502 3.783899 1.926188
v -4.308852 -0.148990 1.926188
v -3.970502 -0.148990 1.926188
v -4.308852 -0.148990 -1.926188
v -3.970502 -0.148990 -1.926188
v -4.308852 3.783899 -1.926188
v -3.970502 3.783899 -1.926188
v -4.308852 3.783899 -2.268060
v -3.970502 3.783899 -2.268060
v -4.308852 -0.148990 -2.268060
v -3.970502 -0.148990 -2.268060
v 3.970502 -0.148990 2.268060
v 4.308852 -0.148990 2.268060
v 3.970502 3.783899 2.268060
v 4.308852 3.783899 2.268060
v 3.970502 3.783899 1.926188
v 4.308852 3.783899 1.926188
v 3.970502 -0.148990 1.926188
v 4.308852 -0.148990 1.926188
v -4.308851 3.783899 2.268060
v 4.308851 3.783899 2.268060
v -4.308851 4.043599 2.268060
v 4.308851 4.043599 2.268060
v -4.308851 4.043599 -2.268060
v 4.308851 4.043599 -2.268060
v -4.308851 3.783899 -2.268060
v 4.308851 3.783899 -2.268060
v 3.970502 -0.148990 -1.926188
v 4.308852 -0.148990 -1.926188
v 3.970502 3.783899 -1.926188
v 4.308852 3.783899 -1.926188
v 3.970502 3.783899 -2.268060
v 4.308852 3.783899 -2.268060
v 3.970502 -0.148990 -2.268060
v 4.308852 -0.148990 -2.268060
vt 0.191934 0.973571
vt 0.519892 0.755263
vt 0.240593 0.723047
vt 0.256701 0.723047
vt 0.224317 0.723047
vt 0.208209 0.723047
vt 0.224317 0.973571
vt 0.463551 0.812657
vt 0.462735 0.756088
vt 0.240593 0.973571
vt 0.208209 0.973571
vt 0.520709 0.811832
vt 0.256701 0.973571
vt 0.191934 0.723047
vt 0.433455 0.969546
vt 0.417448 0.969546
vt 0.417448 0.720596
vt 0.433455 0.720596
vt 0.385268 0.720596
vt 0.401274 0.720596
vt 0.401274 0.969546
vt 0.385268 0.969546
vt 0.531440 0.884106
vt 0.532302 0.832785
vt 0.584157 0.833655
vt 0.583296 0.884976
vt 0.369094 0.969546
vt 0.369094 0.720596
vt 0.285900 0.722851
vt 0.301745 0.722851
vt 0.301745 0.969279
vt 0.285900 0.969279
vt 0.333599 0.969279
vt 0.317754 0.969279
vt 0.317754 0.722851
vt 0.333599 0.722851
vt 0.536039 0.802744
vt 0.535721 0.755655
vt 0.583301 0.755333
vt 0.583619 0.802423
vt 0.349608 0.722851
vt 0.349608 0.969279
vt 0.061114 0.608843
vt 0.472914 0.608843
vt 0.472914 0.618030
vt 0.061114 0.618030
vt 0.061114 0.277870
vt 0.472914 0.277870
vt 0.472914 0.437747
vt 0.061114 0.437747
vt 0.472914 0.448380
vt 0.061114 0.448380
vt 0.485414 0.448380
vt 0.485414 0.608843
vt 0.048794 0.608843
vt 0.048794 0.448380
vt 0.091021 0.723961
vt 0.106827 0.723961
vt 0.106827 0.969802
vt 0.091021 0.969802
vt 0.138606 0.969802
vt 0.122799 0.969802
vt 0.122799 0.723961
vt 0.138606 0.723961
vt 0.465243 0.887200
vt 0.465352 0.831427
vt 0.518274 0.831545
vt 0.518165 0.887317
vt 0.154577 0.723961
vt 0.154577 0.969802
vn 0.000000 0.000000 1.000000
vn 0.000000 0.000000 1.000000
vn 0.000000 0.000000 1.000000
vn 0.000000 0.000000 1.000000
vn 0.000000 1.000000 0.000000
vn 0.000000 1.000000 0.000000
vn 0.000000 1.000000 0.000000
vn 0.000000 1.000000 0.000000
vn 0.000000 0.000000 -1.000000
vn 0.000000 0.000000 -1.000000
vn 0.000000 0.000000 -1.000000
vn 0.000000 0.000000 -1.000000
vn 0.000000 -1.000000 0.000000
vn 0.000000 -1.000000 0.000000
vn 0.000000 -1.000000 0.000000
vn 0.000000 -1.000000 0.000000
vn 1.000000 0.000000 0.000000
vn 1.000000 0.000000 0.000000
vn 1.000000 0.000000 0.000000
vn 1.000000 0.000000 0.000000
vn -1.000000 0.000000 0.000000
vn -1.000000 0.000000 0.000000
vn -1.000000 0.000000 0.000000
vn -1.000000 0.000000 0.000000
vn 0.000000 0.000000 1.000000
vn 0.000000 0.000000 1.000000
vn 0.000000 0.000000 1.000000
vn 0.000000 0.000000 1.000000
vn 0.000000 1.000000 0.000000
vn 0.000000 1.000000 0.000000
vn 0.000000 1.000000 0.000000
vn 0.000000 1.000000 0.000000
vn 0.000000 0.000000 -1.000000
vn 0.000000 0.000000 -1.000000
vn 0.000000 0.000000 -1.000000
vn 0.000000 0.000000 -1.000000
vn 0.000000 -1.000000 0.000000
vn 0.000000 -1.000000 0.000000
vn 0.000000 -1.000000 0.000000
vn 0.000000 -1.000000 0.000000
vn 1.000000 0.000000 0.000000
vn 1.000000 0.000000 0.000000
vn 1.000000 0.000000 0.000000
vn 1.000000 0.000000 0.000000
vn -1.000000 0.000000 0.000000
vn -1.000000 0.000000 0.000000
vn -1.000000 0.000000 0.000000
vn -1.000000 0.000000 0.000000
vn 0.000000 0.000000 1.000000
vn 0.000000 0.000000 1.000000
vn 0.000000 0.000000 1.000000
vn 0.000000 0.000000 1.000000
vn 0.000000 1.000000 0.000000
vn 0.000000 1.000000 0.000000
vn 0.000000 1.000000 0.000000
vn 0.000000 1.000000 0.000000
vn 0.000000 0.000000 -1.000000
vn 0.000000 0.000000 -1.000000
vn 0.000000 0.000000 -1.000000
vn 0.000000 0.000000 -1.000000
vn 0.000000 -1.000000 0.000000
vn 0.000000 -1.000000 0.000000
vn 0.000000 -1.000000 0.000000
vn 0.000000 -1.000000 0.000000
vn 1.000000 0.000000 0.000000
vn 1.000000 0.000000 0.000000
vn 1.000000 0.000000 0.000000
vn 1.000000 0.000000 0.000000
vn -1.000000 0.000000 0.000000
vn -1.000000 0.000000 0.000000
vn -1.000000 0.000000 0.000000
vn -1.000000 0.000000 0.000000
vn 0.000000 0.000000 1.000000
vn 0.000000 0.000000 1.000000
vn 0.000000 0.000000 1.000000
vn 0.000000 0.000000 1.000000
vn 0.000000 1.000000 0.000000
vn 0.000000 1.000000 0.000000
vn 0.000000 1.000000 0.000000
vn 0.000000 1.000000 0.000000
vn 0.000000 0.000000 -1.000000
vn 0.000000 0.000000 -1.000000
vn 0.000000 0.000000 -1.000000
vn 0.000000 0.000000 -1.000000
vn 0.000000 -1.000000 0.000000
vn 0.000000 -1.000000 0.000000
vn 0.000000 -1.000000 0.000000
vn 0.000000 -1.000000 0.000000
vn 1.000000 0.000000 0.000000
vn 1.000000 0.000000 0.000000
vn 1.000000 0.000000 0.000000
vn 1.000000 0.000000 0.000000
vn -1.000000 0.000000 0.000000
vn -1.000000 0.000000 0.000000
vn -1.000000 0.000000 0.000000
vn -1.000000 0.000000 0.000000
vn 0.000000 0.000000 1.000000
vn 0.000000 0.000000 1.000000
vn 0.000000 0.000000 1.000000
vn 0.000000 0.000000 1.000000
vn 0.000000 1.000000 0.000000
vn 0.000000 1.000000 0.000000
vn 0.000000 1.000000 0.000000
vn 0.000000 1.000000 0.000000
vn 0.000000 0.000000 -1.000000
vn 0.000000 0.000000 -1.000000
vn 0.000000 0.000000 -1.000000
vn 0.000000 0.000000 -1.000000
vn 0.000000 -1.000000 0.000000
vn 0.000000 -1.000000 0.000000
vn 0.000000 -1.000000 0.000000
vn 0.000000 -1.000000 0.000000
vn 1.000000 0.000000 0.000000
vn 1.000000 0.000000 0.000000
vn 1.000000 0.000000 0.000000
vn 1.000000 0.000000 0.000000
vn -1.000000 0.000000 0.000000
vn -1.000000 0.000000 0.000000
vn -1.000000 0.000000 0.000000
vn -1.000000 0.000000 0.000000
s off
g Table
usemtl initialShadingGroup
f 1/13/1 2/10/2 4/3/3 3/4/4
f 3//5 4//6 6//7 5//8
f 5/6/9 6/5/10 8/7/11 7/11/12
f 7/8/13 8/9/14 2/2/15 1/12/16
f 2/10/17 8/7/18 6/5/19 4/3/20
f 7/11/21 1/1/22 3/14/23 5/6/24
f 9/15/25 10/16/26 12/17/27 11/18/28
f 11//29 12//30 14//31 13//32
f 13/19/33 14/20/34 16/21/35 15/22/36
f 15/23/37 16/24/38 10/25/39 9/26/40
f 10/16/41 16/21/42 14/20/43 12/17/44
f 15/22/45 9/27/46 11/28/47 13/19/48
f 17/29/49 18/30/50 20/31/51 19/32/52
f 19//53 20//54 22//55 21//56
f 21/33/57 22/34/58 24/35/59 23/36/60
f 23/37/61 24/38/62 18/39/63 17/40/64
f 18/30/65 24/35/66 22/34/67 20/31/68
f 23/36/69 17/41/70 19/42/71 21/33/72
f 25/43/73 26/44/74 28/45/75 27/46/76
f 27/47/77 28/48/78 30/49/79 29/50/80
f 29/50/81 30/49/82 32/51/83 31/52/84
f 31/52/85 32/51/86 26/44/87 25/43/88
f 26/44/89 32/51/90 30/53/91 28/54/92
f 31/52/93 25/43/94 27/55/95 29/56/96
f 33/57/97 34/58/98 36/59/99 35/60/100
f 35//101 36//102 38//103 37//104
f 37/61/105 38/62/106 40/63/107 39/64/108
f 39/65/109 40/66/110 34/67/111 33/68/112
f 34/58/113 40/63/114 38/62/115 36/59/116
f 39/64/117 33/69/118 35/70/119 37/61/120
